<?xml version="1.0" encoding="UTF-8"?>
<svg width="1200pt" height="1200pt" version="1.1" viewBox="0 0 1200 1200" xmlns="http://www.w3.org/2000/svg">
 <g>
  <path d="m248.4 19.199h-199.2c-13.199 0-25.199 10.801-25.199 25.199v199.2c0 13.199 10.801 25.199 25.199 25.199h199.2c13.199 0 25.199-10.801 25.199-25.199l0.003906-199.2c0-14.398-12-25.199-25.203-25.199z"/>
  <path d="m705.6 19.199h-199.2c-13.199 0-25.199 10.801-25.199 25.199v199.2c0 13.199 10.801 25.199 25.199 25.199h199.2c13.199 0 25.199-10.801 25.199-25.199l0.003906-199.2c0-14.398-12-25.199-25.199-25.199z"/>
  <path d="m1152 19.199h-198c-13.199 0-25.199 10.801-25.199 25.199v199.2c0 13.199 10.801 25.199 25.199 25.199l198 0.003906c13.199 0 25.199-10.801 25.199-25.199v-199.2c0-14.398-10.801-25.199-25.199-25.199z"/>
  <path d="m248.4 474h-199.2c-13.199 0-25.199 10.801-25.199 25.199v199.2c0 13.199 10.801 25.199 25.199 25.199h199.2c13.199 0 25.199-10.801 25.199-25.199l0.003906-199.2c0-14.398-12-25.199-25.203-25.199z"/>
  <path d="m705.6 474h-199.2c-13.199 0-25.199 10.801-25.199 25.199v199.2c0 13.199 10.801 25.199 25.199 25.199h199.2c13.199 0 25.199-10.801 25.199-25.199l0.003906-199.2c0-14.398-12-25.199-25.199-25.199z"/>
  <path d="m1152 474h-198c-13.199 0-25.199 10.801-25.199 25.199v199.2c0 13.199 10.801 25.199 25.199 25.199l198 0.003906c13.199 0 25.199-10.801 25.199-25.199v-199.2c0-14.398-10.801-25.199-25.199-25.199z"/>
  <path d="m248.4 927.6h-199.2c-13.199 0-25.199 12-25.199 25.199v199.2c0 13.199 10.801 25.199 25.199 25.199h199.2c13.199 0 25.199-10.801 25.199-25.199l0.003906-199.2c0-13.199-12-25.199-25.203-25.199z"/>
  <path d="m705.6 932.4h-199.2c-13.199 0-25.199 10.801-25.199 25.199v199.2c0 13.199 10.801 25.199 25.199 25.199h199.2c13.199 0 25.199-10.801 25.199-25.199l0.003906-200.4c0-13.199-12-24-25.199-24z"/>
  <path d="m1152 927.6h-198c-13.199 0-25.199 10.801-25.199 25.199v199.2c0 13.199 10.801 25.199 25.199 25.199h198c13.199 0 25.199-10.801 25.199-25.199v-199.2c0-13.199-10.801-25.199-25.199-25.199z"/>
 </g>
</svg>
