<?xml version="1.0" encoding="UTF-8"?>
<svg version="1.1" xmlns="http://www.w3.org/2000/svg">
    <path d="m648 930.4-130.4-112.8h-131.2c-26.398 0-26.398 0-26.398-26.398v-142.4c0-26.398 0-26.398 26.398-26.398h131.2l130.4-112.8zm125.6-32.797-49.602-42.398c32-36 50.398-83.199 50.398-135.2s-18.398-99.199-50.398-135.2l49.602-42.398c41.602 47.199 66.398 109.6 66.398 177.6s-24.801 130.4-66.398 177.6zm426.4-537.6h-1200l107.2 656.8c10.398 63.199 10.398 63.199 76.801 63.199h832c66.398 0 66.398 0 76.801-63.199zm-816.8-320h-223.2c-40 0-40 0-40 40v200h960v-120c0-40 0-40-40-40h-562.4c-18.398 0-18.398 0-28-13.602l-39.199-52.801c-9.6016-13.602-9.6016-13.602-27.199-13.602z"/>
</svg>
